{
  "accessors": [
    {
      "bufferView": 2,
      "componentType": 5126,
      "count": 65532,
      "max": [
        14279.29296875,
        23161.37890625,
        21552.578125
      ],
      "min": [
        1147.603515625,
        0,
        11399.0693359375
      ],
      "type": "VEC3"
    },
    {
      "bufferView": 2,
      "byteOffset": 786384,
      "componentType": 5126,
      "count": 65532,
      "max": [
        0.99991470575332642,
        0.99999308586120605,
        0.99996984004974365
      ],
      "min": [
        -0.99999946355819702,
        -0.99999970197677612,
        -0.99995940923690796
      ],
      "type": "VEC3"
    },
    {
      "bufferView": 3,
      "componentType": 5126,
      "count": 65532,
      "max": [
        0.99995797872543335,
        1,
        0.99929994344711304,
        1
      ],
      "min": [
        -0.9999692440032959,
        -0.99903863668441772,
        -0.99994868040084839,
        -1
      ],
      "type": "VEC4"
    },
    {
      "bufferView": 1,
      "componentType": 5126,
      "count": 65532,
      "max": [
        0.99800598621368408,
        0.99800598621368408
      ],
      "min": [
        0.0039889998733997345,
        0.0039889998733997345
      ],
      "type": "VEC2"
    },
    {
      "bufferView": 0,
      "componentType": 5125,
      "count": 333582,
      "max": [
        65531
      ],
      "min": [
        0
      ],
      "type": "SCALAR"
    },
    {
      "bufferView": 2,
      "byteOffset": 1572768,
      "componentType": 5126,
      "count": 65532,
      "max": [
        17474.544921875,
        23166.78515625,
        21552.578125
      ],
      "min": [
        1511.4140625,
        59.923828125,
        0
      ],
      "type": "VEC3"
    },
    {
      "bufferView": 2,
      "byteOffset": 2359152,
      "componentType": 5126,
      "count": 65532,
      "max": [
        0.99995875358581543,
        0.99878334999084473,
        0.999977707862854
      ],
      "min": [
        -0.99990260601043701,
        -0.99999630451202393,
        -0.99997186660766602
      ],
      "type": "VEC3"
    },
    {
      "bufferView": 3,
      "byteOffset": 1048512,
      "componentType": 5126,
      "count": 65532,
      "max": [
        0.99982607364654541,
        0.99999958276748657,
        0.9985622763633728,
        1
      ],
      "min": [
        -0.99999916553497314,
        -0.99884933233261108,
        -0.9999392032623291,
        -1
      ],
      "type": "VEC4"
    },
    {
      "bufferView": 1,
      "byteOffset": 524256,
      "componentType": 5126,
      "count": 65532,
      "max": [
        0.99800598621368408,
        0.99800598621368408
      ],
      "min": [
        0.0039889998733997345,
        0.0039889998733997345
      ],
      "type": "VEC2"
    },
    {
      "bufferView": 0,
      "byteOffset": 1334328,
      "componentType": 5125,
      "count": 342042,
      "max": [
        65531
      ],
      "min": [
        0
      ],
      "type": "SCALAR"
    },
    {
      "bufferView": 2,
      "byteOffset": 3145536,
      "componentType": 5126,
      "count": 65532,
      "max": [
        11844.8515625,
        23136.81640625,
        20780.98828125
      ],
      "min": [
        0,
        11380.2529296875,
        2.123046875
      ],
      "type": "VEC3"
    },
    {
      "bufferView": 2,
      "byteOffset": 3931920,
      "componentType": 5126,
      "count": 65532,
      "max": [
        0.99999803304672241,
        0.99995905160903931,
        0.99991881847381592
      ],
      "min": [
        -0.99997389316558838,
        -0.9999995231628418,
        -0.99994444847106934
      ],
      "type": "VEC3"
    },
    {
      "bufferView": 3,
      "byteOffset": 2097024,
      "componentType": 5126,
      "count": 65532,
      "max": [
        0.99993240833282471,
        0.99999910593032837,
        0.99990987777709961,
        1
      ],
      "min": [
        -0.99999934434890747,
        -0.9993322491645813,
        -0.99999266862869263,
        -1
      ],
      "type": "VEC4"
    },
    {
      "bufferView": 1,
      "byteOffset": 1048512,
      "componentType": 5126,
      "count": 65532,
      "max": [
        0.99800598621368408,
        0.99800598621368408
      ],
      "min": [
        0.0039889998733997345,
        0.0039889998733997345
      ],
      "type": "VEC2"
    },
    {
      "bufferView": 0,
      "byteOffset": 2702496,
      "componentType": 5125,
      "count": 344820,
      "max": [
        65531
      ],
      "min": [
        0
      ],
      "type": "SCALAR"
    },
    {
      "bufferView": 2,
      "byteOffset": 4718304,
      "componentType": 5126,
      "count": 23566,
      "max": [
        17255.859375,
        22648.578125,
        11919.853515625
      ],
      "min": [
        2447.53125,
        4177.4052734375,
        3286.75830078125
      ],
      "type": "VEC3"
    },
    {
      "bufferView": 2,
      "byteOffset": 5001096,
      "componentType": 5126,
      "count": 23566,
      "max": [
        0.99998921155929565,
        0.99994754791259766,
        0.99985736608505249
      ],
      "min": [
        -0.99975430965423584,
        -0.9999961256980896,
        -0.99953544139862061
      ],
      "type": "VEC3"
    },
    {
      "bufferView": 3,
      "byteOffset": 3145536,
      "componentType": 5126,
      "count": 23566,
      "max": [
        0.99227148294448853,
        0.9999956488609314,
        0.99970948696136475,
        1
      ],
      "min": [
        -0.99998575448989868,
        -0.9955095648765564,
        -0.99989503622055054,
        -1
      ],
      "type": "VEC4"
    },
    {
      "bufferView": 1,
      "byteOffset": 1572768,
      "componentType": 5126,
      "count": 23566,
      "max": [
        0.99700897932052612,
        0.99788099527359009
      ],
      "min": [
        0.0039889998733997345,
        0.0039889998733997345
      ],
      "type": "VEC2"
    },
    {
      "bufferView": 0,
      "byteOffset": 4081776,
      "componentType": 5125,
      "count": 124989,
      "max": [
        23565
      ],
      "min": [
        0
      ],
      "type": "SCALAR"
    }
  ],
  "asset": {
    "extras": {
      "author": "Geoffrey Marchal (https://sketchfab.com/geoffreymarchal)",
      "license": "CC-BY-NC-4.0 (http://creativecommons.org/licenses/by-nc/4.0/)",
      "source": "https://sketchfab.com/models/f45f01c63e514d3bad846e82af640f33",
      "title": "Baptismal Angel kneeling"
    },
    "generator": "Sketchfab-3.19.2",
    "version": "2.0"
  },
  "bufferViews": [
    {
      "buffer": 0,
      "byteLength": 4581732,
      "byteOffset": 0,
      "name": "floatBufferViews",
      "target": 34963
    },
    {
      "buffer": 0,
      "byteLength": 1761296,
      "byteOffset": 4581732,
      "byteStride": 8,
      "name": "floatBufferViews",
      "target": 34962
    },
    {
      "buffer": 0,
      "byteLength": 5283888,
      "byteOffset": 6343028,
      "byteStride": 12,
      "name": "floatBufferViews",
      "target": 34962
    },
    {
      "buffer": 0,
      "byteLength": 3522592,
      "byteOffset": 11626916,
      "byteStride": 16,
      "name": "floatBufferViews",
      "target": 34962
    }
  ],
  "buffers": [
    {
      "byteLength": 15149508,
      "uri": "scene.bin"
    }
  ],
  "images": [
    {
      "uri": "textures/Material_0_baseColor.jpeg"
    },
    {
      "uri": "textures/Material_0_metallicRoughness.png"
    }
  ],
  "materials": [
    {
      "doubleSided": true,
      "emissiveFactor": [
        0,
        0,
        0
      ],
      "name": "Material_0",
      "pbrMetallicRoughness": {
        "baseColorFactor": [
          1,
          1,
          1,
          1
        ],
        "baseColorTexture": {
          "index": 0,
          "texCoord": 0
        },
        "metallicFactor": 0,
        "metallicRoughnessTexture": {
          "index": 1,
          "texCoord": 0
        },
        "roughnessFactor": 1
      }
    }
  ],
  "meshes": [
    {
      "primitives": [
        {
          "attributes": {
            "NORMAL": 1,
            "POSITION": 0,
            "TANGENT": 2,
            "TEXCOORD_0": 3
          },
          "indices": 4,
          "material": 0,
          "mode": 4
        }
      ]
    },
    {
      "primitives": [
        {
          "attributes": {
            "NORMAL": 6,
            "POSITION": 5,
            "TANGENT": 7,
            "TEXCOORD_0": 8
          },
          "indices": 9,
          "material": 0,
          "mode": 4
        }
      ]
    },
    {
      "primitives": [
        {
          "attributes": {
            "NORMAL": 11,
            "POSITION": 10,
            "TANGENT": 12,
            "TEXCOORD_0": 13
          },
          "indices": 14,
          "material": 0,
          "mode": 4
        }
      ]
    },
    {
      "primitives": [
        {
          "attributes": {
            "NORMAL": 16,
            "POSITION": 15,
            "TANGENT": 17,
            "TEXCOORD_0": 18
          },
          "indices": 19,
          "material": 0,
          "mode": 4
        }
      ]
    }
  ],
  "nodes": [
    {
      "children": [
        1
      ],
      "name": "RootNode (gltf orientation matrix)",
      "rotation": [
        -0.70710678118654746,
        -0,
        -0,
        0.70710678118654757
      ]
    },
    {
      "children": [
        2
      ],
      "matrix": [
        -0.89527881145477295,
        0.44550630450248718,
        0,
        0,
        0,
        0,
        -1,
        0,
        -0.44550630450248718,
        -0.89527881145477295,
        0,
        0,
        2303.358642578125,
        4053.379638671875,
        4594.8095703125,
        1
      ],
      "name": "RootNode (model correction matrix)"
    },
    {
      "children": [
        3,
        4,
        5,
        6
      ],
      "matrix": [
        1,
        0,
        0,
        0,
        0,
        1,
        0,
        0,
        0,
        0,
        1,
        0,
        -7481.1865234375,
        -6815.169921875,
        -10949.689453125,
        1
      ],
      "name": "angelyy.obj.cleaner.gles"
    },
    {
      "mesh": 0,
      "name": ""
    },
    {
      "mesh": 1,
      "name": ""
    },
    {
      "mesh": 2,
      "name": ""
    },
    {
      "mesh": 3,
      "name": ""
    }
  ],
  "samplers": [
    {
      "magFilter": 9729,
      "minFilter": 9987,
      "wrapS": 10497,
      "wrapT": 10497
    }
  ],
  "scene": 0,
  "scenes": [
    {
      "name": "OSG_Scene",
      "nodes": [
        0
      ]
    }
  ],
  "textures": [
    {
      "sampler": 0,
      "source": 0
    },
    {
      "sampler": 0,
      "source": 1
    }
  ]
}

